<svg width="152" height="43" viewBox="0 0 152 43" fill="none" xmlns="http://www.w3.org/2000/svg">
<g clip-path="url(#clip0_1_4561)">
<path d="M144.429 37.0763C147.38 37.0763 149.473 36.5413 151.028 35.4183V30.2292C149.419 31.3535 147.487 32.0478 144.804 32.0478C140.243 32.0478 138.365 28.5193 138.365 22.9546C138.365 17.1255 140.672 14.1307 144.858 14.1307C147.326 14.1307 149.74 14.9869 151.028 15.7888V10.3872C149.687 9.63849 147.326 9.10352 144.16 9.10352C136.003 9.10352 131.764 14.9338 131.764 23.1165C131.764 32.1022 135.895 37.0763 144.429 37.0763ZM104.504 34.7227V29.5348C102.518 30.8716 99.191 32.0478 96.0784 32.0478C91.4088 32.0478 89.6387 29.8548 89.3709 25.3626H104.772V21.9934C104.772 12.6333 100.64 9.10352 94.2537 9.10352C86.4728 9.10352 82.7701 15.04 82.7701 23.1696C82.7701 32.5284 87.3851 37.0763 95.5416 37.0763C99.6199 37.0763 102.625 36.0063 104.504 34.7227ZM46.0111 9.63722V20.2797H37.479V9.63722H31.0938V36.54H37.479V25.3082H46.0111V36.5388H52.3988V9.63975H46.0124L46.0111 9.63722ZM81.2157 31.5128H78.3708V9.63848H59.7496V11.9377C59.7496 18.5167 59.3194 27.0206 57.0658 31.5128H55.08V42.6916H60.9829V36.5413H75.3114V42.6916H81.2144V31.5128H81.2157ZM124.897 36.5413H132.141L121.892 22.0465L130.906 9.63848H124.468L115.452 22.0465V9.63848H109.066V36.5413H115.452V23.3302L124.897 36.5413ZM94.1484 14.1307C97.3143 14.1307 98.2799 16.7512 98.2799 20.1204V20.6553H89.3722C89.5334 16.3768 91.089 14.1307 94.1484 14.1307ZM71.9844 31.5128H62.9688C64.7402 27.4481 65.2224 20.1204 65.2224 15.4675V14.6657H71.9844V31.5128Z" fill="black"/>
<path d="M25.7252 36.5401H19.2335V4.39635H16.3353C11.0224 4.39635 8.23206 7.06994 8.23206 11.0285C8.23206 15.5207 10.1646 17.6075 14.135 20.2811L17.4088 22.4741L7.96432 36.5401H0.93457L9.41341 23.9715C4.52938 20.4948 1.79235 17.1256 1.79235 11.4028C1.79235 4.23573 6.78296 -0.630859 16.282 -0.630859H25.7265V36.5401H25.7252Z" fill="#FC3F1D"/>
</g>
<defs>
<clipPath id="clip0_1_4561">
<rect width="151" height="43" fill="white" transform="translate(0.5)"/>
</clipPath>
</defs>
</svg>
