<svg width="80" height="16" viewBox="0 0 80 16" fill="none" xmlns="http://www.w3.org/2000/svg">
<path d="M0.648 13.872C0.530667 13.872 0.434667 13.8347 0.36 13.76C0.274667 13.696 0.232 13.6053 0.232 13.488C0.232 13.3387 0.306667 13.1627 0.456 12.96C0.594667 12.7573 0.829333 12.5333 1.16 12.288C1.21333 12.1493 1.25067 12.0213 1.272 11.904C1.304 11.7867 1.33067 11.6587 1.352 11.52C1.42667 11.0507 1.56 10.576 1.752 10.096C1.944 9.60533 2.136 9.14667 2.328 8.72C2.12533 8.67733 1.92267 8.51733 1.72 8.24C1.528 7.96267 1.432 7.66933 1.432 7.36C1.432 7.28533 1.448 7.16267 1.48 6.992C1.512 6.81067 1.56533 6.72 1.64 6.72C1.736 6.72 1.784 6.8 1.784 6.96C1.784 7.12 1.784 7.232 1.784 7.296C1.784 7.52 1.848 7.744 1.976 7.968C2.104 8.192 2.25867 8.352 2.44 8.448C2.62133 8.05333 2.85067 7.58933 3.128 7.056C3.40533 6.512 3.72 5.94133 4.072 5.344C4.424 4.736 4.808 4.144 5.224 3.568C5.64 2.992 6.07733 2.46933 6.536 2C7.00533 1.53067 7.49067 1.15733 7.992 0.879999C8.49333 0.602666 9.00533 0.464 9.528 0.464C9.95467 0.464 10.264 0.576 10.456 0.799999C10.648 1.01333 10.744 1.30667 10.744 1.68C10.744 2.07467 10.648 2.528 10.456 3.04C10.264 3.552 9.992 4.08533 9.64 4.64C9.29867 5.184 8.89867 5.71733 8.44 6.24C7.98133 6.752 7.48 7.22133 6.936 7.648C6.392 8.064 5.82667 8.39467 5.24 8.64C4.65333 8.88533 4.06667 9.008 3.48 9.008C3.36267 9.008 3.24533 9.00267 3.128 8.992C3.01067 8.97067 2.89867 8.93867 2.792 8.896C2.57867 9.39733 2.38133 9.89867 2.2 10.4C2.01867 10.9013 1.87467 11.424 1.768 11.968C2.58933 11.4667 3.48 11.104 4.44 10.88C5.4 10.656 6.36 10.544 7.32 10.544C7.576 10.544 7.86933 10.592 8.2 10.688C8.53067 10.7733 8.81333 10.912 9.048 11.104C9.29333 11.296 9.416 11.5573 9.416 11.888C9.416 12.1547 9.38933 12.288 9.336 12.288C9.28267 12.288 9.21867 12.192 9.144 12C8.99467 11.616 8.76 11.376 8.44 11.28C8.12 11.1733 7.768 11.12 7.384 11.12C6.73333 11.12 6.17333 11.152 5.704 11.216C5.24533 11.2693 4.81867 11.3547 4.424 11.472C4.04 11.5893 3.64 11.7333 3.224 11.904C2.808 12.0747 2.31733 12.272 1.752 12.496C1.66667 12.9867 1.50667 13.3387 1.272 13.552C1.048 13.7653 0.84 13.872 0.648 13.872ZM3.4 8.72C3.96533 8.72 4.52533 8.59733 5.08 8.352C5.64533 8.096 6.184 7.76 6.696 7.344C7.21867 6.91733 7.69867 6.448 8.136 5.936C8.57333 5.424 8.952 4.90667 9.272 4.384C9.60267 3.85067 9.85867 3.34933 10.04 2.88C10.2213 2.4 10.312 1.99467 10.312 1.664C10.312 1.41867 10.2533 1.22667 10.136 1.088C10.0293 0.949333 9.85867 0.879999 9.624 0.879999C9.22933 0.879999 8.81333 1.01867 8.376 1.296C7.94933 1.57333 7.512 1.94667 7.064 2.416C6.616 2.88533 6.17867 3.40267 5.752 3.968C5.336 4.53333 4.94133 5.10933 4.568 5.696C4.20533 6.272 3.88 6.82133 3.592 7.344C3.304 7.856 3.08 8.288 2.92 8.64C2.97333 8.672 3.05333 8.69333 3.16 8.704C3.26667 8.71467 3.34667 8.72 3.4 8.72ZM11.1525 12.208C10.7685 12.208 10.4325 11.984 10.1445 11.536C9.86717 11.0773 9.7285 10.3573 9.7285 9.376C9.7285 8.736 9.8085 8.224 9.9685 7.84C10.1285 7.44533 10.3258 7.15733 10.5605 6.976C10.7952 6.79467 11.0192 6.704 11.2325 6.704C11.4458 6.704 11.6272 6.77867 11.7765 6.928C11.9258 7.06667 12.0005 7.26933 12.0005 7.536C12.0005 7.792 11.9258 8.064 11.7765 8.352C11.6272 8.62933 11.4458 8.88533 11.2325 9.12C11.0298 9.344 10.8272 9.49333 10.6245 9.568C10.5818 9.58933 10.5285 9.6 10.4645 9.6C10.4218 9.6 10.4005 9.584 10.4005 9.552C10.4005 9.46667 10.4858 9.37067 10.6565 9.264C10.8698 9.11467 11.0725 8.89067 11.2645 8.592C11.4565 8.28267 11.5525 8.01067 11.5525 7.776C11.5525 7.63733 11.5205 7.53067 11.4565 7.456C11.3925 7.37067 11.3178 7.328 11.2325 7.328C11.0725 7.328 10.8965 7.456 10.7045 7.712C10.5232 7.95733 10.3898 8.384 10.3045 8.992C10.2832 9.16267 10.2618 9.328 10.2405 9.488C10.2298 9.63733 10.2245 9.78667 10.2245 9.936C10.2245 10.5333 10.3152 11.0027 10.4965 11.344C10.6778 11.6747 10.9178 11.84 11.2165 11.84C11.4725 11.84 11.7605 11.6907 12.0805 11.392C12.4005 11.0827 12.7152 10.6027 13.0245 9.952C13.0992 9.78133 13.1845 9.696 13.2805 9.696C13.3445 9.696 13.3765 9.73867 13.3765 9.824C13.3765 9.89867 13.3552 9.97867 13.3125 10.064C13.0352 10.7467 12.6992 11.2747 12.3045 11.648C11.9098 12.0213 11.5258 12.208 11.1525 12.208ZM13.8764 13.408C13.8124 13.408 13.759 13.3547 13.7164 13.248C13.6097 13.024 13.5297 12.688 13.4764 12.24C13.423 11.8027 13.3964 11.3067 13.3964 10.752C13.3964 10.1013 13.4284 9.424 13.4924 8.72C13.3537 8.89067 13.2204 9.06133 13.0924 9.232C12.975 9.392 12.879 9.50933 12.8044 9.584C12.7617 9.62667 12.719 9.648 12.6764 9.648C12.591 9.648 12.5484 9.58933 12.5484 9.472C12.5484 9.36533 12.607 9.23733 12.7244 9.088C12.8524 8.93867 12.9964 8.78933 13.1564 8.64C13.3164 8.48 13.4444 8.35733 13.5404 8.272C13.615 7.48267 13.7164 6.72 13.8444 5.984C13.9724 5.248 14.1164 4.608 14.2764 4.064C14.447 3.50933 14.6284 3.12533 14.8204 2.912C14.9164 2.816 15.0284 2.768 15.1564 2.768C15.2737 2.768 15.3697 2.80533 15.4444 2.88C15.519 2.944 15.5564 3.03467 15.5564 3.152C15.5564 3.29067 15.4924 3.488 15.3644 3.744C15.247 3.98933 15.1084 4.272 14.9484 4.592C14.7884 4.90133 14.6337 5.35467 14.4844 5.952C14.335 6.54933 14.2017 7.19467 14.0844 7.888C14.4044 7.71733 14.7457 7.632 15.1084 7.632C15.535 7.632 15.8444 7.76533 16.0364 8.032C16.239 8.288 16.3404 8.60267 16.3404 8.976C16.3404 9.31733 16.271 9.67467 16.1324 10.048C16.0044 10.4213 15.8444 10.768 15.6524 11.088C15.4604 11.408 15.2737 11.664 15.0924 11.856C14.9857 11.9627 14.8737 12.0747 14.7564 12.192C14.639 12.3093 14.4897 12.368 14.3084 12.368C14.1697 12.368 14.0684 12.3147 14.0044 12.208C13.9404 12.1013 13.9084 11.984 13.9084 11.856C13.9084 11.76 13.9457 11.6107 14.0204 11.408C14.095 11.2053 14.1857 10.9867 14.2924 10.752C14.4097 10.5173 14.527 10.2933 14.6444 10.08C14.7617 9.86667 14.863 9.696 14.9484 9.568C14.991 9.49333 15.0497 9.40267 15.1244 9.296C15.2097 9.17867 15.2737 9.12 15.3164 9.12C15.3377 9.12 15.3484 9.136 15.3484 9.168C15.3484 9.21067 15.3217 9.28533 15.2684 9.392C15.215 9.488 15.1617 9.57867 15.1084 9.664C15.0017 9.86667 14.879 10.112 14.7404 10.4C14.6017 10.688 14.479 10.976 14.3724 11.264C14.2657 11.5413 14.2124 11.7707 14.2124 11.952C14.2124 12.0373 14.239 12.08 14.2924 12.08C14.3457 12.08 14.4097 12.0427 14.4844 11.968C14.5697 11.8827 14.655 11.792 14.7404 11.696C14.8257 11.5893 14.8844 11.5147 14.9164 11.472C15.1617 11.1307 15.359 10.736 15.5084 10.288C15.6577 9.84 15.7324 9.424 15.7324 9.04C15.7324 8.70933 15.6737 8.43733 15.5564 8.224C15.439 8 15.2417 7.888 14.9644 7.888C14.7084 7.888 14.3937 8.00533 14.0204 8.24C13.935 8.80533 13.8657 9.37067 13.8124 9.936C13.759 10.4907 13.7324 11.0027 13.7324 11.472C13.7324 11.7707 13.743 12.0373 13.7644 12.272C13.7964 12.5067 13.839 12.6987 13.8924 12.848C13.9244 12.9227 13.9457 12.9867 13.9564 13.04C13.967 13.104 13.9724 13.1627 13.9724 13.216C13.9724 13.344 13.9404 13.408 13.8764 13.408ZM18.1838 12.208C17.7998 12.208 17.4638 11.984 17.1758 11.536C16.8984 11.0773 16.7598 10.3573 16.7598 9.376C16.7598 8.736 16.8398 8.224 16.9998 7.84C17.1598 7.44533 17.3571 7.15733 17.5918 6.976C17.8264 6.79467 18.0504 6.704 18.2638 6.704C18.4771 6.704 18.6584 6.77867 18.8078 6.928C18.9571 7.06667 19.0318 7.26933 19.0318 7.536C19.0318 7.792 18.9571 8.064 18.8078 8.352C18.6584 8.62933 18.4771 8.88533 18.2638 9.12C18.0611 9.344 17.8584 9.49333 17.6558 9.568C17.6131 9.58933 17.5598 9.6 17.4958 9.6C17.4531 9.6 17.4318 9.584 17.4318 9.552C17.4318 9.46667 17.5171 9.37067 17.6878 9.264C17.9011 9.11467 18.1038 8.89067 18.2958 8.592C18.4878 8.28267 18.5838 8.01067 18.5838 7.776C18.5838 7.63733 18.5518 7.53067 18.4878 7.456C18.4238 7.37067 18.3491 7.328 18.2638 7.328C18.1038 7.328 17.9278 7.456 17.7358 7.712C17.5544 7.95733 17.4211 8.384 17.3358 8.992C17.3144 9.16267 17.2931 9.328 17.2718 9.488C17.2611 9.63733 17.2558 9.78667 17.2558 9.936C17.2558 10.5333 17.3464 11.0027 17.5278 11.344C17.7091 11.6747 17.9491 11.84 18.2478 11.84C18.5038 11.84 18.7918 11.6907 19.1118 11.392C19.4318 11.0827 19.7464 10.6027 20.0558 9.952C20.1304 9.78133 20.2158 9.696 20.3118 9.696C20.3758 9.696 20.4078 9.73867 20.4078 9.824C20.4078 9.89867 20.3864 9.97867 20.3438 10.064C20.0664 10.7467 19.7304 11.2747 19.3358 11.648C18.9411 12.0213 18.5571 12.208 18.1838 12.208ZM22.7796 12.224C22.6303 12.224 22.5183 12.1653 22.4436 12.048C22.3796 11.9307 22.3476 11.7707 22.3476 11.568C22.3476 11.3013 22.3956 10.9813 22.4916 10.608C22.5876 10.224 22.705 9.824 22.8436 9.408C22.9823 8.992 23.1263 8.592 23.2756 8.208C23.425 7.824 23.5583 7.48267 23.6756 7.184C23.793 6.88533 23.873 6.672 23.9156 6.544C23.937 6.49067 23.9583 6.42133 23.9796 6.336C24.0116 6.24 24.0276 6.15467 24.0276 6.08C24.0276 5.99467 24.0063 5.92533 23.9636 5.872C23.9316 5.81867 23.857 5.792 23.7396 5.792C23.569 5.792 23.3823 5.86667 23.1796 6.016C22.9876 6.15467 22.7956 6.32533 22.6036 6.528C22.4116 6.72 22.241 6.912 22.0916 7.104C21.953 7.296 21.857 7.44 21.8036 7.536C21.473 8.08 21.2276 8.64533 21.0676 9.232C20.9076 9.808 20.7956 10.416 20.7316 11.056C20.721 11.1627 20.6676 11.28 20.5716 11.408C20.4756 11.536 20.3796 11.6 20.2836 11.6C20.1983 11.6 20.1343 11.5467 20.0916 11.44C20.0596 11.3653 20.0383 11.28 20.0276 11.184C20.017 11.088 20.0116 10.9867 20.0116 10.88C20.0116 10.784 20.0116 10.6933 20.0116 10.608C20.0223 10.512 20.0276 10.4267 20.0276 10.352C20.0383 10.0213 20.0543 9.69067 20.0756 9.36C20.097 9.02933 20.1076 8.69867 20.1076 8.368C20.1076 8.25067 20.1023 8.13333 20.0916 8.016C20.0916 7.888 20.0863 7.76533 20.0756 7.648C20.065 7.49867 20.0436 7.344 20.0116 7.184C19.9796 7.01333 19.8996 6.87467 19.7716 6.768C19.761 6.75733 19.7556 6.752 19.7556 6.752C19.7556 6.74133 19.7556 6.736 19.7556 6.736C19.7556 6.69333 19.793 6.672 19.8676 6.672C19.9423 6.672 19.9956 6.688 20.0276 6.72C20.177 6.79467 20.2943 6.93333 20.3796 7.136C20.4756 7.33867 20.545 7.568 20.5876 7.824C20.641 8.08 20.6783 8.33067 20.6996 8.576C20.721 8.81067 20.737 9.008 20.7476 9.168C20.8223 8.98667 20.8916 8.82133 20.9556 8.672C21.0196 8.512 21.089 8.35733 21.1636 8.208C21.2703 7.99467 21.409 7.73867 21.5796 7.44C21.761 7.13067 21.969 6.832 22.2036 6.544C22.4383 6.256 22.6943 6.016 22.9716 5.824C23.249 5.632 23.5423 5.536 23.8516 5.536C24.1823 5.536 24.4116 5.61067 24.5396 5.76C24.6783 5.89867 24.7476 6.07467 24.7476 6.288C24.7476 6.52267 24.689 6.784 24.5716 7.072C24.465 7.34933 24.3316 7.62667 24.1716 7.904C24.0116 8.18133 23.857 8.432 23.7076 8.656C23.569 8.86933 23.4676 9.03467 23.4036 9.152C23.3716 9.20533 23.313 9.328 23.2276 9.52C23.1423 9.70133 23.0516 9.91467 22.9556 10.16C22.8596 10.3947 22.7743 10.6347 22.6996 10.88C22.6356 11.1253 22.6036 11.3333 22.6036 11.504C22.6036 11.6747 22.6463 11.7867 22.7316 11.84C22.8383 11.904 22.9503 11.8933 23.0676 11.808C23.1956 11.7227 23.3023 11.6373 23.3876 11.552C23.473 11.4667 23.505 11.456 23.4836 11.52C23.473 11.6587 23.393 11.8133 23.2436 11.984C23.105 12.144 22.9503 12.224 22.7796 12.224ZM26.5115 12.688C26.3728 12.688 26.2715 12.64 26.2075 12.544C26.1542 12.4587 26.1275 12.3733 26.1275 12.288C26.1275 12.1173 26.2022 11.9413 26.3515 11.76C26.4048 11.696 26.4795 11.6107 26.5755 11.504C26.6715 11.3867 26.7408 11.296 26.7835 11.232C26.6448 11.04 26.4582 10.864 26.2235 10.704C25.9888 10.544 25.7595 10.3413 25.5355 10.096C25.3328 9.872 25.1622 9.6 25.0235 9.28C24.8848 8.94933 24.8155 8.63467 24.8155 8.336C24.8155 7.984 24.8955 7.648 25.0555 7.328C25.2155 7.008 25.4128 6.73067 25.6475 6.496C25.9035 6.24 26.1862 6.03733 26.4955 5.888C26.8048 5.728 27.1248 5.648 27.4555 5.648C27.6795 5.648 27.8982 5.70133 28.1115 5.808C28.3248 5.91467 28.4315 6.09067 28.4315 6.336C28.4315 6.624 28.3675 6.768 28.2395 6.768C28.1862 6.768 28.1488 6.71467 28.1275 6.608C28.1168 6.55467 28.1115 6.50133 28.1115 6.448C28.1115 6.384 28.1115 6.34133 28.1115 6.32C28.1115 6.21333 28.0635 6.12267 27.9675 6.048C27.8715 5.96267 27.7648 5.92 27.6475 5.92C27.4022 5.92 27.1302 6.016 26.8315 6.208C26.5328 6.4 26.2822 6.624 26.0795 6.88C25.8768 7.14667 25.7115 7.45067 25.5835 7.792C25.4555 8.12267 25.3915 8.44267 25.3915 8.752C25.3915 9.136 25.4768 9.46667 25.6475 9.744C25.8182 10.0213 26.0208 10.2667 26.2555 10.48C26.5008 10.6933 26.7195 10.9013 26.9115 11.104C27.0075 10.9867 27.1088 10.8747 27.2155 10.768C27.3328 10.6613 27.4395 10.576 27.5355 10.512C27.6208 10.4587 27.6795 10.432 27.7115 10.432C27.7435 10.432 27.7595 10.448 27.7595 10.48C27.7595 10.5333 27.7115 10.5973 27.6155 10.672C27.5942 10.6933 27.5302 10.7573 27.4235 10.864C27.3275 10.96 27.2102 11.0827 27.0715 11.232C27.1568 11.328 27.2262 11.4293 27.2795 11.536C27.3328 11.6427 27.3595 11.76 27.3595 11.888C27.3595 12.0587 27.2635 12.2347 27.0715 12.416C26.8795 12.5973 26.6928 12.688 26.5115 12.688ZM26.6875 12.256C26.7622 12.256 26.8315 12.1867 26.8955 12.048C26.9702 11.92 27.0075 11.792 27.0075 11.664C27.0075 11.6 26.9968 11.5413 26.9755 11.488C26.9542 11.4347 26.9382 11.4027 26.9275 11.392C26.8422 11.4987 26.7622 11.616 26.6875 11.744C26.6235 11.8613 26.5915 11.968 26.5915 12.064C26.5915 12.192 26.6235 12.256 26.6875 12.256ZM29.5773 12.368C29.1719 12.368 28.9693 11.8933 28.9693 10.944C28.9693 10.4427 28.9959 10.016 29.0493 9.664C29.1026 9.30133 29.1559 8.94933 29.2093 8.608C29.2626 8.256 29.2893 7.856 29.2893 7.408C29.2893 7.13067 29.2679 6.89067 29.2253 6.688C29.1826 6.48533 29.0919 6.384 28.9533 6.384C28.8786 6.384 28.8146 6.416 28.7613 6.48C28.7186 6.53333 28.6759 6.592 28.6333 6.656C28.5906 6.74133 28.5586 6.784 28.5373 6.784C28.5159 6.784 28.5053 6.75733 28.5053 6.704C28.5053 6.58667 28.5426 6.45333 28.6173 6.304C28.7026 6.15467 28.8146 6.08 28.9533 6.08C29.1346 6.08 29.2733 6.176 29.3693 6.368C29.4653 6.56 29.5293 6.752 29.5613 6.944C29.5933 7.232 29.6093 7.49867 29.6093 7.744C29.6093 8.17067 29.5826 8.58133 29.5293 8.976C29.4759 9.36 29.4493 9.808 29.4493 10.32C29.4493 10.832 29.4973 11.2213 29.5933 11.488C29.6893 11.744 29.8013 11.872 29.9293 11.872C30.0253 11.872 30.1319 11.8027 30.2493 11.664C30.3666 11.5253 30.4786 11.36 30.5853 11.168C30.7879 10.816 30.9586 10.416 31.0973 9.968C31.2359 9.50933 31.3639 9.08267 31.4813 8.688C31.5133 8.56 31.5879 8.496 31.7053 8.496C31.8653 8.496 31.9826 8.576 32.0573 8.736C32.0893 8.8 32.1106 8.93867 32.1213 9.152C32.1319 9.35467 32.1373 9.62133 32.1373 9.952C32.1373 10.1227 32.1426 10.3093 32.1533 10.512C32.1746 10.7147 32.2119 10.8853 32.2653 11.024C32.3186 11.1627 32.3986 11.232 32.5052 11.232C32.6439 11.232 32.7773 11.056 32.9053 10.704C33.0226 10.352 33.1133 9.904 33.1773 9.36C33.2519 8.80533 33.3479 8.288 33.4653 7.808C33.5506 7.43467 33.6679 7.11467 33.8173 6.848C33.9773 6.58133 34.1906 6.448 34.4573 6.448C34.5959 6.448 34.7239 6.48533 34.8413 6.56C34.9693 6.624 35.0706 6.69333 35.1453 6.768C35.2199 6.84267 35.2626 6.90133 35.2733 6.944C35.2946 6.976 35.3053 7.008 35.3053 7.04C35.3053 7.11467 35.2893 7.152 35.2573 7.152C35.2146 7.152 35.1666 7.12533 35.1133 7.072C35.0493 7.008 34.9319 6.976 34.7613 6.976C34.5479 6.976 34.3666 7.088 34.2173 7.312C34.0679 7.536 33.9506 7.76533 33.8653 8C33.7479 8.34133 33.6466 8.71467 33.5613 9.12C33.4759 9.52533 33.4066 9.904 33.3533 10.256C33.2999 10.5973 33.2466 10.8533 33.1933 11.024C33.1293 11.2587 33.0493 11.424 32.9533 11.52C32.8679 11.616 32.7719 11.664 32.6653 11.664C32.4946 11.664 32.3186 11.5627 32.1373 11.36C31.9559 11.1573 31.7959 10.9173 31.6573 10.64C31.5293 10.352 31.4493 10.1013 31.4173 9.888H31.3853C31.3426 10.144 31.2573 10.416 31.1293 10.704C31.0013 10.992 30.8466 11.264 30.6653 11.52C30.4946 11.7653 30.3133 11.968 30.1213 12.128C29.9293 12.288 29.7479 12.368 29.5773 12.368ZM36.0431 12.208C35.6591 12.208 35.3231 11.984 35.0351 11.536C34.7578 11.0773 34.6191 10.3573 34.6191 9.376C34.6191 8.736 34.6991 8.224 34.8591 7.84C35.0191 7.44533 35.2165 7.15733 35.4511 6.976C35.6858 6.79467 35.9098 6.704 36.1231 6.704C36.3365 6.704 36.5178 6.77867 36.6671 6.928C36.8165 7.06667 36.8911 7.26933 36.8911 7.536C36.8911 7.792 36.8165 8.064 36.6671 8.352C36.5178 8.62933 36.3365 8.88533 36.1231 9.12C35.9205 9.344 35.7178 9.49333 35.5151 9.568C35.4725 9.58933 35.4191 9.6 35.3551 9.6C35.3125 9.6 35.2911 9.584 35.2911 9.552C35.2911 9.46667 35.3765 9.37067 35.5471 9.264C35.7605 9.11467 35.9631 8.89067 36.1551 8.592C36.3471 8.28267 36.4431 8.01067 36.4431 7.776C36.4431 7.63733 36.4111 7.53067 36.3471 7.456C36.2831 7.37067 36.2085 7.328 36.1231 7.328C35.9631 7.328 35.7871 7.456 35.5951 7.712C35.4138 7.95733 35.2805 8.384 35.1951 8.992C35.1738 9.16267 35.1525 9.328 35.1311 9.488C35.1205 9.63733 35.1151 9.78667 35.1151 9.936C35.1151 10.5333 35.2058 11.0027 35.3871 11.344C35.5685 11.6747 35.8085 11.84 36.1071 11.84C36.3631 11.84 36.6511 11.6907 36.9711 11.392C37.2911 11.0827 37.6058 10.6027 37.9151 9.952C37.9898 9.78133 38.0751 9.696 38.1711 9.696C38.2351 9.696 38.2671 9.73867 38.2671 9.824C38.2671 9.89867 38.2458 9.97867 38.2031 10.064C37.9258 10.7467 37.5898 11.2747 37.1951 11.648C36.8005 12.0213 36.4165 12.208 36.0431 12.208ZM39.471 6.656C39.375 6.656 39.3057 6.608 39.263 6.512C39.231 6.40533 39.215 6.33067 39.215 6.288C39.215 6.11733 39.263 5.95733 39.359 5.808C39.4657 5.648 39.583 5.56267 39.711 5.552H39.759C39.887 5.552 39.9723 5.584 40.015 5.648C40.0683 5.70133 40.095 5.77067 40.095 5.856C40.095 6.016 40.0257 6.192 39.887 6.384C39.7483 6.56533 39.6097 6.656 39.471 6.656ZM38.655 12.384C38.2923 12.384 38.047 12.2453 37.919 11.968C37.791 11.6907 37.727 11.3707 37.727 11.008C37.727 10.6453 37.7643 10.2667 37.839 9.872C37.9243 9.46667 38.015 9.09867 38.111 8.768C38.2177 8.43733 38.2977 8.20267 38.351 8.064C38.4683 7.81867 38.5857 7.61067 38.703 7.44C38.8203 7.25867 38.9483 7.168 39.087 7.168C39.183 7.168 39.2523 7.20533 39.295 7.28C39.3483 7.344 39.375 7.42933 39.375 7.536C39.375 7.74933 39.3163 7.968 39.199 8.192C39.0817 8.40533 38.975 8.608 38.879 8.8C38.6657 9.23733 38.495 9.62667 38.367 9.968C38.2497 10.3093 38.191 10.736 38.191 11.248C38.191 11.5787 38.223 11.8187 38.287 11.968C38.3617 12.1173 38.463 12.192 38.591 12.192C38.7617 12.192 38.959 12.096 39.183 11.904C39.407 11.7013 39.6363 11.4347 39.871 11.104C40.1057 10.7733 40.3137 10.416 40.495 10.032C40.6123 9.78667 40.703 9.664 40.767 9.664C40.8097 9.664 40.831 9.70667 40.831 9.792C40.831 9.90933 40.783 10.08 40.687 10.304C40.6017 10.5173 40.495 10.736 40.367 10.96C40.2497 11.184 40.1377 11.36 40.031 11.488C39.8497 11.7227 39.6417 11.9307 39.407 12.112C39.1723 12.2933 38.9217 12.384 38.655 12.384ZM41.824 12.688C41.6853 12.688 41.584 12.64 41.52 12.544C41.4667 12.4587 41.44 12.3733 41.44 12.288C41.44 12.1173 41.5147 11.9413 41.664 11.76C41.7173 11.696 41.792 11.6107 41.888 11.504C41.984 11.3867 42.0533 11.296 42.096 11.232C41.9573 11.04 41.7707 10.864 41.536 10.704C41.3013 10.544 41.072 10.3413 40.848 10.096C40.6453 9.872 40.4747 9.6 40.336 9.28C40.1973 8.94933 40.128 8.63467 40.128 8.336C40.128 7.984 40.208 7.648 40.368 7.328C40.528 7.008 40.7253 6.73067 40.96 6.496C41.216 6.24 41.4987 6.03733 41.808 5.888C42.1173 5.728 42.4373 5.648 42.768 5.648C42.992 5.648 43.2107 5.70133 43.424 5.808C43.6373 5.91467 43.744 6.09067 43.744 6.336C43.744 6.624 43.68 6.768 43.552 6.768C43.4987 6.768 43.4613 6.71467 43.44 6.608C43.4293 6.55467 43.424 6.50133 43.424 6.448C43.424 6.384 43.424 6.34133 43.424 6.32C43.424 6.21333 43.376 6.12267 43.28 6.048C43.184 5.96267 43.0773 5.92 42.96 5.92C42.7147 5.92 42.4427 6.016 42.144 6.208C41.8453 6.4 41.5947 6.624 41.392 6.88C41.1893 7.14667 41.024 7.45067 40.896 7.792C40.768 8.12267 40.704 8.44267 40.704 8.752C40.704 9.136 40.7893 9.46667 40.96 9.744C41.1307 10.0213 41.3333 10.2667 41.568 10.48C41.8133 10.6933 42.032 10.9013 42.224 11.104C42.32 10.9867 42.4213 10.8747 42.528 10.768C42.6453 10.6613 42.752 10.576 42.848 10.512C42.9333 10.4587 42.992 10.432 43.024 10.432C43.056 10.432 43.072 10.448 43.072 10.48C43.072 10.5333 43.024 10.5973 42.928 10.672C42.9067 10.6933 42.8427 10.7573 42.736 10.864C42.64 10.96 42.5227 11.0827 42.384 11.232C42.4693 11.328 42.5387 11.4293 42.592 11.536C42.6453 11.6427 42.672 11.76 42.672 11.888C42.672 12.0587 42.576 12.2347 42.384 12.416C42.192 12.5973 42.0053 12.688 41.824 12.688ZM42 12.256C42.0747 12.256 42.144 12.1867 42.208 12.048C42.2827 11.92 42.32 11.792 42.32 11.664C42.32 11.6 42.3093 11.5413 42.288 11.488C42.2667 11.4347 42.2507 11.4027 42.24 11.392C42.1547 11.4987 42.0747 11.616 42 11.744C41.936 11.8613 41.904 11.968 41.904 12.064C41.904 12.192 41.936 12.256 42 12.256ZM45.1369 12.208C44.7529 12.208 44.4169 11.984 44.1289 11.536C43.8515 11.0773 43.7129 10.3573 43.7129 9.376C43.7129 8.736 43.7929 8.224 43.9529 7.84C44.1129 7.44533 44.3102 7.15733 44.5449 6.976C44.7795 6.79467 45.0035 6.704 45.2169 6.704C45.4302 6.704 45.6115 6.77867 45.7609 6.928C45.9102 7.06667 45.9849 7.26933 45.9849 7.536C45.9849 7.792 45.9102 8.064 45.7609 8.352C45.6115 8.62933 45.4302 8.88533 45.2169 9.12C45.0142 9.344 44.8115 9.49333 44.6089 9.568C44.5662 9.58933 44.5129 9.6 44.4489 9.6C44.4062 9.6 44.3849 9.584 44.3849 9.552C44.3849 9.46667 44.4702 9.37067 44.6409 9.264C44.8542 9.11467 45.0569 8.89067 45.2489 8.592C45.4409 8.28267 45.5369 8.01067 45.5369 7.776C45.5369 7.63733 45.5049 7.53067 45.4409 7.456C45.3769 7.37067 45.3022 7.328 45.2169 7.328C45.0569 7.328 44.8809 7.456 44.6889 7.712C44.5075 7.95733 44.3742 8.384 44.2889 8.992C44.2675 9.16267 44.2462 9.328 44.2249 9.488C44.2142 9.63733 44.2089 9.78667 44.2089 9.936C44.2089 10.5333 44.2995 11.0027 44.4809 11.344C44.6622 11.6747 44.9022 11.84 45.2009 11.84C45.4569 11.84 45.7449 11.6907 46.0649 11.392C46.3849 11.0827 46.6995 10.6027 47.0089 9.952C47.0835 9.78133 47.1689 9.696 47.2649 9.696C47.3289 9.696 47.3609 9.73867 47.3609 9.824C47.3609 9.89867 47.3395 9.97867 47.2969 10.064C47.0195 10.7467 46.6835 11.2747 46.2889 11.648C45.8942 12.0213 45.5102 12.208 45.1369 12.208ZM57.8128 15.056C57.5141 15.056 57.2634 14.928 57.0608 14.672C56.8581 14.4267 56.7088 14.1227 56.6128 13.76C56.5168 13.3973 56.4688 13.0507 56.4688 12.72C56.4688 12.08 56.5594 11.3707 56.7408 10.592C56.9221 9.81333 57.1461 9.01867 57.4128 8.208C57.6901 7.39733 57.9728 6.61867 58.2608 5.872C58.5594 5.11467 58.8261 4.432 59.0608 3.824C59.2954 3.216 59.4608 2.73067 59.5568 2.368C59.5781 2.272 59.5941 2.18667 59.6048 2.112C59.6154 2.02667 59.6208 1.95733 59.6208 1.904C59.6208 1.712 59.5621 1.616 59.4448 1.616C59.2741 1.616 59.0181 1.792 58.6768 2.144C58.3354 2.48533 57.9514 2.95467 57.5248 3.552C57.1088 4.13867 56.6928 4.80533 56.2768 5.552C55.8608 6.29867 55.4874 7.072 55.1568 7.872C54.8368 8.66133 54.6128 9.43467 54.4848 10.192C54.4421 10.4693 54.3674 10.6773 54.2608 10.816C54.1648 10.9547 54.0688 11.024 53.9728 11.024C53.8874 11.024 53.8128 10.9707 53.7488 10.864C53.6848 10.7573 53.6528 10.6027 53.6528 10.4C53.6421 9.54667 53.6154 8.69333 53.5728 7.84C53.5301 6.976 53.4341 6.14933 53.2848 5.36C53.0608 4.144 52.8048 3.28 52.5168 2.768C52.2394 2.256 51.9514 2 51.6528 2C51.3754 2 51.1034 2.17067 50.8368 2.512C50.5808 2.84267 50.3354 3.28533 50.1008 3.84C49.8661 4.384 49.6581 4.98133 49.4768 5.632C49.2954 6.28267 49.1514 6.928 49.0448 7.568C48.9488 8.208 48.9008 8.77867 48.9008 9.28C48.9008 9.39733 48.9008 9.51467 48.9008 9.632C48.9114 9.73867 48.9221 9.84 48.9328 9.936C48.9434 9.98933 48.9488 10.048 48.9488 10.112C48.9488 10.1653 48.9488 10.2187 48.9488 10.272C48.9488 10.5173 48.9168 10.736 48.8528 10.928C48.7888 11.12 48.7141 11.216 48.6288 11.216C48.5434 11.216 48.4634 11.12 48.3888 10.928C48.3034 10.736 48.2341 10.496 48.1808 10.208C48.1274 9.90933 48.0848 9.65867 48.0528 9.456C48.0314 9.30667 47.9834 9.08267 47.9088 8.784C47.8448 8.48533 47.7648 8.16 47.6688 7.808C47.5728 7.44533 47.4608 7.09333 47.3328 6.752C47.2154 6.4 47.0874 6.10133 46.9488 5.856C46.8101 5.6 46.6661 5.43467 46.5168 5.36C46.4954 5.33867 46.4848 5.31733 46.4848 5.296C46.4848 5.24267 46.5381 5.21067 46.6448 5.2C46.7621 5.18933 46.8421 5.19467 46.8848 5.216C47.1088 5.28 47.3061 5.44 47.4768 5.696C47.6581 5.94133 47.8128 6.23467 47.9408 6.576C48.0794 6.90667 48.1968 7.23733 48.2928 7.568C48.3888 7.888 48.4688 8.15467 48.5328 8.368C48.6501 7.632 48.7888 6.90667 48.9488 6.192C49.1194 5.46667 49.3434 4.75733 49.6208 4.064C50.0154 3.104 50.4048 2.42133 50.7888 2.016C51.1728 1.6 51.5354 1.392 51.8768 1.392C52.2394 1.392 52.5648 1.57867 52.8528 1.952C53.1514 2.31467 53.4021 2.8 53.6048 3.408C53.8181 4.00533 53.9621 4.656 54.0368 5.36C54.0794 5.72267 54.1061 6.11733 54.1168 6.544C54.1274 6.96 54.1328 7.37067 54.1328 7.776V9.024C54.1328 9.20533 54.1328 9.37067 54.1328 9.52C54.1328 9.66933 54.1381 9.792 54.1488 9.888C54.2234 9.632 54.3461 9.27467 54.5168 8.816C54.6874 8.34667 54.8954 7.824 55.1408 7.248C55.3861 6.66133 55.6634 6.05867 55.9728 5.44C56.2821 4.82133 56.6128 4.22933 56.9648 3.664C57.3274 3.088 57.7008 2.58667 58.0848 2.16C58.4794 1.72267 58.8741 1.40267 59.2688 1.2C59.5034 1.08267 59.7221 1.024 59.9248 1.024C60.1594 1.024 60.3568 1.09333 60.5168 1.232C60.6768 1.36 60.7568 1.552 60.7568 1.808C60.7568 2.192 60.6768 2.576 60.5168 2.96C60.3568 3.33333 60.1648 3.70133 59.9408 4.064C59.7168 4.42667 59.5088 4.77867 59.3168 5.12C58.9754 5.73867 58.6341 6.45333 58.2928 7.264C57.9514 8.07467 57.6634 8.912 57.4288 9.776C57.2048 10.64 57.0928 11.472 57.0928 12.272C57.0928 12.528 57.1034 12.7787 57.1248 13.024C57.1568 13.2693 57.2048 13.504 57.2688 13.728C57.3648 14.0693 57.4821 14.304 57.6208 14.432C57.7701 14.5707 57.9194 14.64 58.0688 14.64C58.2288 14.64 58.3781 14.592 58.5168 14.496C58.6554 14.4107 58.7674 14.3147 58.8528 14.208C58.9381 14.112 58.9754 14.0533 58.9648 14.032C59.0608 14 59.0981 14.0267 59.0768 14.112C59.0554 14.208 59.0128 14.304 58.9488 14.4C58.8848 14.5067 58.8421 14.5707 58.8208 14.592C58.4474 14.9013 58.1114 15.056 57.8128 15.056ZM61.1838 12.208C60.7998 12.208 60.4638 11.984 60.1758 11.536C59.8984 11.0773 59.7598 10.3573 59.7598 9.376C59.7598 8.736 59.8398 8.224 59.9998 7.84C60.1598 7.44533 60.3571 7.15733 60.5918 6.976C60.8264 6.79467 61.0504 6.704 61.2638 6.704C61.4771 6.704 61.6584 6.77867 61.8078 6.928C61.9571 7.06667 62.0318 7.26933 62.0318 7.536C62.0318 7.792 61.9571 8.064 61.8078 8.352C61.6584 8.62933 61.4771 8.88533 61.2638 9.12C61.0611 9.344 60.8584 9.49333 60.6558 9.568C60.6131 9.58933 60.5598 9.6 60.4958 9.6C60.4531 9.6 60.4318 9.584 60.4318 9.552C60.4318 9.46667 60.5171 9.37067 60.6878 9.264C60.9011 9.11467 61.1038 8.89067 61.2958 8.592C61.4878 8.28267 61.5838 8.01067 61.5838 7.776C61.5838 7.63733 61.5518 7.53067 61.4878 7.456C61.4238 7.37067 61.3491 7.328 61.2638 7.328C61.1038 7.328 60.9278 7.456 60.7358 7.712C60.5544 7.95733 60.4211 8.384 60.3358 8.992C60.3144 9.16267 60.2931 9.328 60.2718 9.488C60.2611 9.63733 60.2558 9.78667 60.2558 9.936C60.2558 10.5333 60.3464 11.0027 60.5278 11.344C60.7091 11.6747 60.9491 11.84 61.2478 11.84C61.5038 11.84 61.7918 11.6907 62.1118 11.392C62.4318 11.0827 62.7464 10.6027 63.0558 9.952C63.1304 9.78133 63.2158 9.696 63.3118 9.696C63.3758 9.696 63.4078 9.73867 63.4078 9.824C63.4078 9.89867 63.3864 9.97867 63.3438 10.064C63.0664 10.7467 62.7304 11.2747 62.3358 11.648C61.9411 12.0213 61.5571 12.208 61.1838 12.208ZM64.6116 6.656C64.5156 6.656 64.4463 6.608 64.4036 6.512C64.3716 6.40533 64.3556 6.33067 64.3556 6.288C64.3556 6.11733 64.4036 5.95733 64.4996 5.808C64.6063 5.648 64.7236 5.56267 64.8516 5.552H64.8996C65.0276 5.552 65.113 5.584 65.1556 5.648C65.209 5.70133 65.2356 5.77067 65.2356 5.856C65.2356 6.016 65.1663 6.192 65.0276 6.384C64.889 6.56533 64.7503 6.656 64.6116 6.656ZM63.7956 12.384C63.433 12.384 63.1876 12.2453 63.0596 11.968C62.9316 11.6907 62.8676 11.3707 62.8676 11.008C62.8676 10.6453 62.905 10.2667 62.9796 9.872C63.065 9.46667 63.1556 9.09867 63.2516 8.768C63.3583 8.43733 63.4383 8.20267 63.4916 8.064C63.609 7.81867 63.7263 7.61067 63.8436 7.44C63.961 7.25867 64.089 7.168 64.2276 7.168C64.3236 7.168 64.393 7.20533 64.4356 7.28C64.489 7.344 64.5156 7.42933 64.5156 7.536C64.5156 7.74933 64.457 7.968 64.3396 8.192C64.2223 8.40533 64.1156 8.608 64.0196 8.8C63.8063 9.23733 63.6356 9.62667 63.5076 9.968C63.3903 10.3093 63.3316 10.736 63.3316 11.248C63.3316 11.5787 63.3636 11.8187 63.4276 11.968C63.5023 12.1173 63.6036 12.192 63.7316 12.192C63.9023 12.192 64.0996 12.096 64.3236 11.904C64.5476 11.7013 64.777 11.4347 65.0116 11.104C65.2463 10.7733 65.4543 10.416 65.6356 10.032C65.753 9.78667 65.8436 9.664 65.9076 9.664C65.9503 9.664 65.9716 9.70667 65.9716 9.792C65.9716 9.90933 65.9236 10.08 65.8276 10.304C65.7423 10.5173 65.6356 10.736 65.5076 10.96C65.3903 11.184 65.2783 11.36 65.1716 11.488C64.9903 11.7227 64.7823 11.9307 64.5476 12.112C64.313 12.2933 64.0623 12.384 63.7956 12.384ZM66.9646 12.688C66.826 12.688 66.7246 12.64 66.6606 12.544C66.6073 12.4587 66.5806 12.3733 66.5806 12.288C66.5806 12.1173 66.6553 11.9413 66.8046 11.76C66.858 11.696 66.9326 11.6107 67.0286 11.504C67.1246 11.3867 67.194 11.296 67.2366 11.232C67.098 11.04 66.9113 10.864 66.6766 10.704C66.442 10.544 66.2126 10.3413 65.9886 10.096C65.786 9.872 65.6153 9.6 65.4766 9.28C65.338 8.94933 65.2686 8.63467 65.2686 8.336C65.2686 7.984 65.3486 7.648 65.5086 7.328C65.6686 7.008 65.866 6.73067 66.1006 6.496C66.3566 6.24 66.6393 6.03733 66.9486 5.888C67.258 5.728 67.578 5.648 67.9086 5.648C68.1326 5.648 68.3513 5.70133 68.5646 5.808C68.778 5.91467 68.8846 6.09067 68.8846 6.336C68.8846 6.624 68.8206 6.768 68.6926 6.768C68.6393 6.768 68.602 6.71467 68.5806 6.608C68.57 6.55467 68.5646 6.50133 68.5646 6.448C68.5646 6.384 68.5646 6.34133 68.5646 6.32C68.5646 6.21333 68.5166 6.12267 68.4206 6.048C68.3246 5.96267 68.218 5.92 68.1006 5.92C67.8553 5.92 67.5833 6.016 67.2846 6.208C66.986 6.4 66.7353 6.624 66.5326 6.88C66.33 7.14667 66.1646 7.45067 66.0366 7.792C65.9086 8.12267 65.8446 8.44267 65.8446 8.752C65.8446 9.136 65.93 9.46667 66.1006 9.744C66.2713 10.0213 66.474 10.2667 66.7086 10.48C66.954 10.6933 67.1726 10.9013 67.3646 11.104C67.4606 10.9867 67.562 10.8747 67.6686 10.768C67.786 10.6613 67.8926 10.576 67.9886 10.512C68.074 10.4587 68.1326 10.432 68.1646 10.432C68.1966 10.432 68.2126 10.448 68.2126 10.48C68.2126 10.5333 68.1646 10.5973 68.0686 10.672C68.0473 10.6933 67.9833 10.7573 67.8766 10.864C67.7806 10.96 67.6633 11.0827 67.5246 11.232C67.61 11.328 67.6793 11.4293 67.7326 11.536C67.786 11.6427 67.8126 11.76 67.8126 11.888C67.8126 12.0587 67.7166 12.2347 67.5246 12.416C67.3326 12.5973 67.146 12.688 66.9646 12.688ZM67.1406 12.256C67.2153 12.256 67.2846 12.1867 67.3486 12.048C67.4233 11.92 67.4606 11.792 67.4606 11.664C67.4606 11.6 67.45 11.5413 67.4286 11.488C67.4073 11.4347 67.3913 11.4027 67.3806 11.392C67.2953 11.4987 67.2153 11.616 67.1406 11.744C67.0766 11.8613 67.0446 11.968 67.0446 12.064C67.0446 12.192 67.0766 12.256 67.1406 12.256ZM70.5424 14.56C70.4357 14.56 70.3237 14.4907 70.2064 14.352C70.0997 14.224 69.9984 14.0427 69.9024 13.808C69.7424 13.424 69.6304 13.0187 69.5664 12.592C69.5024 12.176 69.4704 11.7547 69.4704 11.328C69.4704 10.8587 69.5024 10.4 69.5664 9.952C69.6304 9.504 69.6997 9.09867 69.7744 8.736C69.8277 8.48 69.8917 8.208 69.9664 7.92C70.041 7.632 70.1104 7.40267 70.1744 7.232C70.1104 7.24267 70.009 7.28 69.8704 7.344C69.7317 7.408 69.5877 7.472 69.4384 7.536C69.2997 7.6 69.177 7.632 69.0704 7.632C68.9104 7.632 68.8304 7.54133 68.8304 7.36C68.8304 7.264 68.8624 7.17867 68.9264 7.104C69.001 7.02933 69.0917 6.97067 69.1984 6.928C69.4117 6.832 69.6464 6.76267 69.9024 6.72C70.1584 6.66667 70.329 6.61333 70.4144 6.56L70.8304 5.504C70.873 5.39733 70.9477 5.22667 71.0544 4.992C71.1717 4.74667 71.305 4.48533 71.4544 4.208C71.6144 3.93067 71.769 3.68 71.9184 3.456C72.0357 3.28533 72.1477 3.152 72.2544 3.056C72.361 2.94933 72.4784 2.896 72.6064 2.896C72.7984 2.896 72.8944 2.97067 72.8944 3.12C72.8944 3.20533 72.857 3.33333 72.7824 3.504C72.7184 3.67467 72.5957 3.89867 72.4144 4.176C72.2117 4.496 72.0037 4.816 71.7904 5.136C71.5877 5.44533 71.4117 5.77067 71.2624 6.112C71.2517 6.15467 71.225 6.224 71.1824 6.32C71.1504 6.40533 71.1237 6.45867 71.1024 6.48L71.4224 6.432C71.5077 6.42133 71.6037 6.416 71.7104 6.416C71.817 6.40533 71.9344 6.4 72.0624 6.4C72.2437 6.4 72.4144 6.41067 72.5744 6.432C72.745 6.44267 72.8837 6.46933 72.9904 6.512C73.0437 6.53333 73.0917 6.56 73.1344 6.592C73.1877 6.61333 73.2144 6.63467 73.2144 6.656C73.2144 6.69867 73.0757 6.72 72.7984 6.72C72.6384 6.72 72.409 6.74667 72.1104 6.8C71.8224 6.85333 71.4917 6.93867 71.1184 7.056C70.937 7.10933 70.8144 7.184 70.7504 7.28C70.6864 7.376 70.601 7.60533 70.4944 7.968C70.3344 8.544 70.2064 9.09867 70.1104 9.632C70.0144 10.1547 69.9397 10.688 69.8864 11.232C69.8757 11.3387 69.865 11.4507 69.8544 11.568C69.8544 11.6853 69.8544 11.8133 69.8544 11.952C69.8544 12.3147 69.8864 12.6933 69.9504 13.088C70.025 13.4827 70.1317 13.824 70.2704 14.112C70.3024 14.176 70.3344 14.2347 70.3664 14.288C70.409 14.3413 70.457 14.3787 70.5104 14.4C70.585 14.432 70.6224 14.4693 70.6224 14.512C70.6224 14.544 70.5957 14.56 70.5424 14.56ZM73.2619 12.208C72.8779 12.208 72.5419 11.984 72.2539 11.536C71.9765 11.0773 71.8379 10.3573 71.8379 9.376C71.8379 8.736 71.9179 8.224 72.0779 7.84C72.2379 7.44533 72.4352 7.15733 72.6699 6.976C72.9045 6.79467 73.1285 6.704 73.3419 6.704C73.5552 6.704 73.7365 6.77867 73.8859 6.928C74.0352 7.06667 74.1099 7.26933 74.1099 7.536C74.1099 7.792 74.0352 8.064 73.8859 8.352C73.7365 8.62933 73.5552 8.88533 73.3419 9.12C73.1392 9.344 72.9365 9.49333 72.7339 9.568C72.6912 9.58933 72.6379 9.6 72.5739 9.6C72.5312 9.6 72.5099 9.584 72.5099 9.552C72.5099 9.46667 72.5952 9.37067 72.7659 9.264C72.9792 9.11467 73.1819 8.89067 73.3739 8.592C73.5659 8.28267 73.6619 8.01067 73.6619 7.776C73.6619 7.63733 73.6299 7.53067 73.5659 7.456C73.5019 7.37067 73.4272 7.328 73.3419 7.328C73.1819 7.328 73.0059 7.456 72.8139 7.712C72.6325 7.95733 72.4992 8.384 72.4139 8.992C72.3925 9.16267 72.3712 9.328 72.3499 9.488C72.3392 9.63733 72.3339 9.78667 72.3339 9.936C72.3339 10.5333 72.4245 11.0027 72.6059 11.344C72.7872 11.6747 73.0272 11.84 73.3259 11.84C73.5819 11.84 73.8699 11.6907 74.1899 11.392C74.5099 11.0827 74.8245 10.6027 75.1339 9.952C75.2085 9.78133 75.2939 9.696 75.3899 9.696C75.4539 9.696 75.4859 9.73867 75.4859 9.824C75.4859 9.89867 75.4645 9.97867 75.4219 10.064C75.1445 10.7467 74.8085 11.2747 74.4139 11.648C74.0192 12.0213 73.6352 12.208 73.2619 12.208ZM77.1378 12.8C76.7964 12.8 76.5351 12.64 76.3538 12.32C76.1724 12.0107 76.0818 11.6693 76.0818 11.296C76.0818 10.944 76.1404 10.576 76.2578 10.192C76.3751 9.808 76.5191 9.42933 76.6898 9.056C76.8711 8.68267 77.0578 8.34133 77.2498 8.032C77.0578 8.10667 76.8764 8.144 76.7057 8.144C76.6204 8.144 76.5458 8.13333 76.4818 8.112C76.4178 8.09067 76.3644 8.07467 76.3218 8.064C76.2684 8.192 76.1724 8.40533 76.0338 8.704C75.9058 9.00267 75.7671 9.31733 75.6178 9.648C75.4791 9.968 75.3564 10.24 75.2498 10.464C75.0791 10.8267 74.9298 11.008 74.8018 11.008C74.7378 11.008 74.7058 10.9653 74.7058 10.88C74.7058 10.816 74.7324 10.7307 74.7858 10.624C75.0311 10.1653 75.2604 9.712 75.4738 9.264C75.6978 8.816 75.9004 8.384 76.0818 7.968C76.0604 7.91467 76.0391 7.84533 76.0178 7.76C75.9964 7.664 75.9858 7.56267 75.9858 7.456C75.9858 7.33867 75.9964 7.216 76.0178 7.088C76.0498 6.94933 76.0924 6.816 76.1458 6.688C76.1778 6.61333 76.2364 6.50667 76.3218 6.368C76.4071 6.21867 76.5031 6.08533 76.6098 5.968C76.7164 5.84 76.8178 5.776 76.9138 5.776C77.0951 5.776 77.1858 5.872 77.1858 6.064C77.1858 6.24533 77.1271 6.45333 77.0098 6.688C76.9031 6.92267 76.7911 7.14133 76.6738 7.344C76.5564 7.536 76.4978 7.68 76.4978 7.776C76.4978 7.86133 76.5404 7.904 76.6258 7.904C76.7431 7.904 76.8871 7.84533 77.0578 7.728C77.2391 7.6 77.3831 7.48267 77.4898 7.376C77.5431 7.32267 77.6284 7.24267 77.7458 7.136C77.8631 7.01867 77.9751 6.96 78.0818 6.96C78.1884 6.96 78.2578 6.992 78.2898 7.056C78.3324 7.12 78.3538 7.19467 78.3538 7.28C78.3538 7.376 78.3111 7.49867 78.2258 7.648C78.1404 7.78667 78.0391 7.92533 77.9218 8.064C77.8151 8.20267 77.7244 8.32 77.6498 8.416C77.5004 8.64 77.3298 8.92267 77.1378 9.264C76.9458 9.60533 76.7804 9.97333 76.6418 10.368C76.5031 10.752 76.4338 11.12 76.4338 11.472C76.4338 11.7067 76.4924 11.952 76.6098 12.208C76.7271 12.464 76.8871 12.592 77.0898 12.592C77.2711 12.592 77.4631 12.496 77.6658 12.304C77.8791 12.112 78.0764 11.8827 78.2578 11.616C78.4498 11.3493 78.6151 11.0933 78.7538 10.848C78.9031 10.6027 79.0044 10.432 79.0578 10.336C79.0791 10.2827 79.1164 10.2187 79.1698 10.144C79.2231 10.0587 79.2871 10.016 79.3618 10.016C79.4258 10.016 79.4578 10.048 79.4578 10.112C79.4578 10.1653 79.4418 10.2293 79.4098 10.304C79.3884 10.368 79.3671 10.4267 79.3458 10.48C79.2498 10.704 79.1324 10.9387 78.9938 11.184C78.8551 11.4293 78.7591 11.5947 78.7057 11.68C78.5564 11.9253 78.3324 12.1707 78.0338 12.416C77.7458 12.672 77.4471 12.8 77.1378 12.8Z" fill="black"/>
</svg>
